<svg xmlns="http://www.w3.org/2000/svg" xmlns:xlink="http://www.w3.org/1999/xlink" width="25" height="25" style="background-color:transparent"><g style="fill:#ffdf66;stroke:#ffdf66;stroke-width:.125"><rect width="4" height="4" x="10" y="2"/><rect width="4" height="4" x="10" y="6"/><rect width="4" height="4" x="10" y="10"/><rect width="4" height="4" x="6" y="6"/><rect width="4" height="4" x="14" y="6"/><rect width="4" height="4" x="6" y="10"/><rect width="4" height="4" x="14" y="10"/><rect width="4" height="4" x="6" y="14"/><rect width="4" height="4" x="14" y="14"/><rect width="4" height="4" x="6" y="18"/><rect width="4" height="4" x="14" y="18"/><rect width="4" height="4" x="2" y="6"/><rect width="4" height="4" x="18" y="6"/><rect width="4" height="4" x="2" y="14"/><rect width="4" height="4" x="18" y="14"/></g></svg>